<?xml version="1.0" encoding="utf-8"?>
<!-- Generator: Adobe Illustrator 29.5.0, SVG Export Plug-In . SVG Version: 9.03 Build 0)  -->
<svg version="1.1" id="Layer_1" xmlns="http://www.w3.org/2000/svg" xmlns:xlink="http://www.w3.org/1999/xlink" x="0px" y="0px"
	 viewBox="0 0 200 35.8" style="enable-background:new 0 0 200 35.8;" xml:space="preserve">
<style type="text/css">
	.Drop_x0020_Shadow{fill:none;}
	.Round_x0020_Corners_x0020_2_x0020_pt{fill:#FFFFFF;stroke:#000000;stroke-miterlimit:10;}
	.Live_x0020_Reflect_x0020_X{fill:none;}
	.Bevel_x0020_Soft{fill:url(#SVGID_1_);}
	.Dusk{fill:#FFFFFF;}
	.Foliage_GS{fill:#FFDD00;}
	.Pompadour_GS{fill-rule:evenodd;clip-rule:evenodd;fill:#51AEE2;}
	.st0{fill:url(#SVGID_00000053507820615526681120000005614511316856470974_);}
	.st1{fill:url(#SVGID_00000075843744152386595250000015291011886521587875_);}
	.st2{fill:url(#SVGID_00000080925901656851853570000007112010390145812373_);}
	.st3{fill:url(#SVGID_00000160164054582867405430000017920446763317100991_);}
	.st4{fill:url(#SVGID_00000058583048029370400730000013010905535312833176_);}
	.st5{fill:url(#SVGID_00000075150419787839274140000018376274035494513343_);}
	.st6{fill:url(#SVGID_00000121260381213797898540000005933380399008607897_);}
	.st7{fill:url(#SVGID_00000047019507625406936980000012596638598118289340_);}
	.st8{fill:#993A3B;}
	.st9{fill:#4F4D4D;}
</style>
<linearGradient id="SVGID_1_" gradientUnits="userSpaceOnUse" x1="0" y1="-82.1166" x2="0.7071" y2="-81.4095">
	<stop  offset="0" style="stop-color:#E6E6EB"/>
	<stop  offset="0.1738" style="stop-color:#E2E2E6"/>
	<stop  offset="0.352" style="stop-color:#D5D4D8"/>
	<stop  offset="0.5323" style="stop-color:#C0BFC2"/>
	<stop  offset="0.7139" style="stop-color:#A4A2A4"/>
	<stop  offset="0.8949" style="stop-color:#828282"/>
	<stop  offset="1" style="stop-color:#6B6E6E"/>
</linearGradient>
<g>
	<g>
		<g>
			
				<linearGradient id="SVGID_00000079453306267010384740000012473919247583750579_" gradientUnits="userSpaceOnUse" x1="27.571" y1="27.2107" x2="38.7136" y2="38.3532">
				<stop  offset="0" style="stop-color:#FAB735"/>
				<stop  offset="1" style="stop-color:#E3312D"/>
			</linearGradient>
			<path style="fill:url(#SVGID_00000079453306267010384740000012473919247583750579_);" d="M33.1,21.6c0.1,0.7,0.2,1.5,0.2,2.2
				c0,5.5-3.5,10.1-8.4,11.9h16.3L33.1,21.6z"/>
			
				<linearGradient id="SVGID_00000023987950275903207730000012506891365983081382_" gradientUnits="userSpaceOnUse" x1="2.5857" y1="27.2099" x2="13.7297" y2="38.3539">
				<stop  offset="0" style="stop-color:#FAB735"/>
				<stop  offset="1" style="stop-color:#E3312D"/>
			</linearGradient>
			<path style="fill:url(#SVGID_00000023987950275903207730000012506891365983081382_);" d="M8,23.8c0-0.8,0.1-1.5,0.2-2.2L0,35.8
				h16.3C11.4,34,8,29.3,8,23.8z"/>
			
				<linearGradient id="SVGID_00000145752490642121780900000015469834121468903859_" gradientUnits="userSpaceOnUse" x1="15.0856" y1="5.5644" x2="26.2143" y2="16.6931">
				<stop  offset="0" style="stop-color:#FAB735"/>
				<stop  offset="1" style="stop-color:#E3312D"/>
			</linearGradient>
			<path style="fill:url(#SVGID_00000145752490642121780900000015469834121468903859_);" d="M28.8,14.1L20.6,0l-8.1,14.1
				c2.2-1.8,5-3,8.1-3S26.6,12.3,28.8,14.1z"/>
			
				<linearGradient id="SVGID_00000018942205783538705030000001561368402344146609_" gradientUnits="userSpaceOnUse" x1="13.9514" y1="17.1459" x2="27.3486" y2="30.5432">
				<stop  offset="0" style="stop-color:#FAB735"/>
				<stop  offset="1" style="stop-color:#E3312D"/>
			</linearGradient>
			<circle style="fill:url(#SVGID_00000018942205783538705030000001561368402344146609_);" cx="20.6" cy="23.8" r="9.5"/>
		</g>
		<g>
			
				<linearGradient id="SVGID_00000142876798272222640000000011164404659405166992_" gradientUnits="userSpaceOnUse" x1="6.5458" y1="14.1042" x2="34.7542" y2="42.3126">
				<stop  offset="0" style="stop-color:#FAB735"/>
				<stop  offset="1" style="stop-color:#E3312D"/>
			</linearGradient>
			<path style="fill:url(#SVGID_00000142876798272222640000000011164404659405166992_);" d="M33.1,21.6c0.1,0.7,0.2,1.5,0.2,2.2
				c0,5.5-3.5,10.1-8.4,11.9h16.3L33.1,21.6z"/>
			
				<linearGradient id="SVGID_00000090266013326311583740000003695996167967404705_" gradientUnits="userSpaceOnUse" x1="6.5458" y1="14.1042" x2="34.7542" y2="42.3126">
				<stop  offset="0" style="stop-color:#FAB735"/>
				<stop  offset="1" style="stop-color:#E3312D"/>
			</linearGradient>
			<path style="fill:url(#SVGID_00000090266013326311583740000003695996167967404705_);" d="M8,23.8c0-0.8,0.1-1.5,0.2-2.2L0,35.8
				h16.3C11.4,34,8,29.3,8,23.8z"/>
			
				<linearGradient id="SVGID_00000008125953850141744090000012106141366068893879_" gradientUnits="userSpaceOnUse" x1="6.5458" y1="14.1042" x2="34.7542" y2="42.3126">
				<stop  offset="0" style="stop-color:#FAB735"/>
				<stop  offset="1" style="stop-color:#E3312D"/>
			</linearGradient>
			<path style="fill:url(#SVGID_00000008125953850141744090000012106141366068893879_);" d="M28.8,14.1L20.6,0l-8.1,14.1
				c2.2-1.8,5-3,8.1-3S26.6,12.3,28.8,14.1z"/>
			
				<linearGradient id="SVGID_00000055697098024892705600000008496279648614254473_" gradientUnits="userSpaceOnUse" x1="6.5458" y1="14.1042" x2="34.7542" y2="42.3126">
				<stop  offset="0" style="stop-color:#FAB735"/>
				<stop  offset="1" style="stop-color:#E3312D"/>
			</linearGradient>
			<circle style="fill:url(#SVGID_00000055697098024892705600000008496279648614254473_);" cx="20.6" cy="23.8" r="9.5"/>
		</g>
	</g>
	<g>
		<g>
			<polygon class="st8" points="86,29 81.6,22.4 77.2,29 73.7,29 79.8,20.1 73.9,11.5 77.6,11.5 81.7,17.8 85.8,11.5 89.4,11.5 
				83.5,20 89.7,29 			"/>
			<path class="st8" d="M129.4,29c-2.6,0-4.7-0.8-6.3-2.5c-1.7-1.7-2.5-3.7-2.5-6.2c0-2.4,0.8-4.5,2.5-6.2c1.7-1.8,3.8-2.6,6.5-2.6
				c1.6,0,3,0.3,4.1,0.7c0.9,0.4,1.7,0.9,2.3,1.5l-1.9,2.2c-1.4-1.3-2.9-1.9-4.6-1.9c-1.6,0-3,0.6-4.1,1.8c-1.1,1.2-1.6,2.6-1.6,4.3
				c0,1.7,0.5,3.2,1.6,4.4c1,1.2,2.4,1.8,4.1,1.8c1.9,0,3.5-0.7,4.7-2l1.8,1.9c-0.8,0.8-1.6,1.4-2.5,1.9
				C132.5,28.7,131.1,29,129.4,29z"/>
			<path class="st8" d="M172,29c-2.4,0-4.3-0.7-5.6-2c-1.3-1.3-2-3.2-2-5.8V11.2h3.3v10c0,1.7,0.4,3,1.2,3.8
				c0.8,0.9,1.9,1.3,3.3,1.3c1.3,0,2.4-0.4,3.2-1.3c0.8-0.9,1.2-2.1,1.2-3.8V11.2h3.3v9.9c0,1.3-0.2,2.5-0.5,3.5
				c-0.3,0.9-0.9,1.8-1.5,2.4c-0.7,0.6-1.5,1.1-2.4,1.5C174.3,28.8,173.2,29,172,29z"/>
			<polygon class="st8" points="148.1,29 148.1,14.2 142.4,14.2 142.4,11.5 157,11.5 157,14.2 151.3,14.2 151.3,29 			"/>
			<path class="st8" d="M193.7,29c-1.3,0-2.7-0.2-4-0.7c-1.1-0.4-2.2-1-3.1-1.8l1.8-2.1c0.8,0.6,1.6,1.1,2.4,1.5
				c0.9,0.4,2,0.6,3.1,0.6c0.9,0,1.6-0.2,2.1-0.5c0.6-0.4,0.9-1,0.9-1.8c0-0.4-0.1-0.8-0.2-1c-0.2-0.3-0.4-0.6-0.7-0.8
				c-0.3-0.2-0.7-0.4-1.2-0.6c-0.4-0.2-1-0.3-1.6-0.5l-0.2-0.1c-1-0.2-1.8-0.5-2.6-0.8c-0.7-0.3-1.3-0.6-1.8-1
				c-0.5-0.4-0.8-0.8-1.1-1.3c-0.2-0.5-0.4-1.2-0.4-2c0-0.8,0.1-1.5,0.4-2.1c0.3-0.6,0.7-1.1,1.2-1.6c0.5-0.5,1.2-0.8,1.9-1.1
				c0.7-0.2,1.6-0.4,2.5-0.4c1.3,0,2.5,0.2,3.6,0.6c0.9,0.3,1.8,0.8,2.6,1.3l-1.5,2.2c-0.8-0.5-1.5-0.9-2.2-1.2
				c-0.8-0.3-1.7-0.5-2.5-0.5c-0.9,0-1.5,0.2-2,0.6c-0.5,0.4-0.8,0.9-0.8,1.6c0,0.5,0.1,0.9,0.3,1.2c0.1,0.3,0.4,0.5,0.8,0.8
				c0.3,0.2,0.7,0.4,1.3,0.5c0.4,0.1,0.8,0.2,1.2,0.3l0.7,0.2c0.9,0.2,1.7,0.5,2.5,0.8c0.7,0.3,1.3,0.6,1.7,1c0.4,0.4,0.8,0.8,1,1.3
				c0.2,0.5,0.3,1.1,0.3,1.8c0,0.9-0.1,1.6-0.4,2.2c-0.3,0.6-0.7,1.2-1.2,1.6c-0.6,0.5-1.2,0.8-2,1C195.5,28.9,194.6,29,193.7,29z"
				/>
			<polygon class="st8" points="53,29 53,11.5 66.2,11.5 66.2,14.1 55.8,14.1 55.8,19 64,19 64,21.5 55.8,21.5 55.8,26.5 66.2,26.5 
				66.2,29 			"/>
			<polygon class="st8" points="98.6,29 105.3,17.2 112.2,29 115.6,29 105.3,11.1 95.1,29 			"/>
		</g>
		<g>
			<polygon class="st9" points="86,29 81.6,22.4 77.2,29 73.7,29 79.8,20.1 73.9,11.5 77.6,11.5 81.7,17.8 85.8,11.5 89.4,11.5 
				83.5,20 89.7,29 			"/>
			<path class="st9" d="M129.4,29c-2.6,0-4.7-0.8-6.3-2.5c-1.7-1.7-2.5-3.7-2.5-6.2c0-2.4,0.8-4.5,2.5-6.2c1.7-1.8,3.8-2.6,6.5-2.6
				c1.6,0,3,0.3,4.1,0.7c0.9,0.4,1.7,0.9,2.3,1.5l-1.9,2.2c-1.4-1.3-2.9-1.9-4.6-1.9c-1.6,0-3,0.6-4.1,1.8c-1.1,1.2-1.6,2.6-1.6,4.3
				c0,1.7,0.5,3.2,1.6,4.4c1,1.2,2.4,1.8,4.1,1.8c1.9,0,3.5-0.7,4.7-2l1.8,1.9c-0.8,0.8-1.6,1.4-2.5,1.9
				C132.5,28.7,131.1,29,129.4,29z"/>
			<path class="st9" d="M172,29c-2.4,0-4.3-0.7-5.6-2c-1.3-1.3-2-3.2-2-5.8V11.2h3.3v10c0,1.7,0.4,3,1.2,3.8
				c0.8,0.9,1.9,1.3,3.3,1.3c1.3,0,2.4-0.4,3.2-1.3c0.8-0.9,1.2-2.1,1.2-3.8V11.2h3.3v9.9c0,1.3-0.2,2.5-0.5,3.5
				c-0.3,0.9-0.9,1.8-1.5,2.4c-0.7,0.6-1.5,1.1-2.4,1.5C174.3,28.8,173.2,29,172,29z"/>
			<polygon class="st9" points="148.1,29 148.1,14.2 142.4,14.2 142.4,11.5 157,11.5 157,14.2 151.3,14.2 151.3,29 			"/>
			<path class="st9" d="M193.7,29c-1.3,0-2.7-0.2-4-0.7c-1.1-0.4-2.2-1-3.1-1.8l1.8-2.1c0.8,0.6,1.6,1.1,2.4,1.5
				c0.9,0.4,2,0.6,3.1,0.6c0.9,0,1.6-0.2,2.1-0.5c0.6-0.4,0.9-1,0.9-1.8c0-0.4-0.1-0.8-0.2-1c-0.2-0.3-0.4-0.6-0.7-0.8
				c-0.3-0.2-0.7-0.4-1.2-0.6c-0.4-0.2-1-0.3-1.6-0.5l-0.2-0.1c-1-0.2-1.8-0.5-2.6-0.8c-0.7-0.3-1.3-0.6-1.8-1
				c-0.5-0.4-0.8-0.8-1.1-1.3c-0.2-0.5-0.4-1.2-0.4-2c0-0.8,0.1-1.5,0.4-2.1c0.3-0.6,0.7-1.1,1.2-1.6c0.5-0.5,1.2-0.8,1.9-1.1
				c0.7-0.2,1.6-0.4,2.5-0.4c1.3,0,2.5,0.2,3.6,0.6c0.9,0.3,1.8,0.8,2.6,1.3l-1.5,2.2c-0.8-0.5-1.5-0.9-2.2-1.2
				c-0.8-0.3-1.7-0.5-2.5-0.5c-0.9,0-1.5,0.2-2,0.6c-0.5,0.4-0.8,0.9-0.8,1.6c0,0.5,0.1,0.9,0.3,1.2c0.1,0.3,0.4,0.5,0.8,0.8
				c0.3,0.2,0.7,0.4,1.3,0.5c0.4,0.1,0.8,0.2,1.2,0.3l0.7,0.2c0.9,0.2,1.7,0.5,2.5,0.8c0.7,0.3,1.3,0.6,1.7,1c0.4,0.4,0.8,0.8,1,1.3
				c0.2,0.5,0.3,1.1,0.3,1.8c0,0.9-0.1,1.6-0.4,2.2c-0.3,0.6-0.7,1.2-1.2,1.6c-0.6,0.5-1.2,0.8-2,1C195.5,28.9,194.6,29,193.7,29z"
				/>
			<polygon class="st9" points="53,29 53,11.5 66.2,11.5 66.2,14.1 55.8,14.1 55.8,19 64,19 64,21.5 55.8,21.5 55.8,26.5 66.2,26.5 
				66.2,29 			"/>
			<polygon class="st9" points="98.6,29 105.3,17.2 112.2,29 115.6,29 105.3,11.1 95.1,29 			"/>
		</g>
	</g>
</g>
</svg>
