<?xml version="1.0" encoding="utf-8"?>
<!-- Generator: Adobe Illustrator 29.5.0, SVG Export Plug-In . SVG Version: 9.03 Build 0)  -->
<svg version="1.1" id="Layer_1" xmlns="http://www.w3.org/2000/svg" xmlns:xlink="http://www.w3.org/1999/xlink" x="0px" y="0px"
	 viewBox="0 0 58 50" style="enable-background:new 0 0 58 50;" xml:space="preserve">
<style type="text/css">
	.Drop_x0020_Shadow{fill:none;}
	.Round_x0020_Corners_x0020_2_x0020_pt{fill:#FFFFFF;stroke:#000000;stroke-miterlimit:10;}
	.Live_x0020_Reflect_x0020_X{fill:none;}
	.Bevel_x0020_Soft{fill:url(#SVGID_1_);}
	.Dusk{fill:#FFFFFF;}
	.Foliage_GS{fill:#FFDD00;}
	.Pompadour_GS{fill-rule:evenodd;clip-rule:evenodd;fill:#51AEE2;}
	.st0{fill:url(#SVGID_00000054237924121559389030000002352418731405431731_);}
	.st1{fill:url(#SVGID_00000171683448631787280560000004773533379174057371_);}
	.st2{fill:url(#SVGID_00000032612240824184075560000007556139870848844714_);}
	.st3{fill:url(#SVGID_00000036244118512323376940000001618086561810837170_);}
	.st4{fill:url(#SVGID_00000178894591857264724270000015200698056715426432_);}
	.st5{fill:url(#SVGID_00000013877179020924756330000008044637611136927139_);}
	.st6{fill:url(#SVGID_00000165939311879401974920000015978146921694730378_);}
	.st7{fill:url(#SVGID_00000121253124448055383530000004628710705268606596_);}
</style>
<linearGradient id="SVGID_1_" gradientUnits="userSpaceOnUse" x1="-71" y1="-75" x2="-70.2929" y2="-74.2929">
	<stop  offset="0" style="stop-color:#E6E6EB"/>
	<stop  offset="0.1738" style="stop-color:#E2E2E6"/>
	<stop  offset="0.352" style="stop-color:#D5D4D8"/>
	<stop  offset="0.5323" style="stop-color:#C0BFC2"/>
	<stop  offset="0.7139" style="stop-color:#A4A2A4"/>
	<stop  offset="0.8949" style="stop-color:#828282"/>
	<stop  offset="1" style="stop-color:#6B6E6E"/>
</linearGradient>
<g>
	<g>
		
			<linearGradient id="SVGID_00000036244663318246200060000001351162242209099190_" gradientUnits="userSpaceOnUse" x1="38.6752" y1="38.0389" x2="54.2519" y2="53.6156">
			<stop  offset="0" style="stop-color:#FAB735"/>
			<stop  offset="1" style="stop-color:#E3312D"/>
		</linearGradient>
		<path style="fill:url(#SVGID_00000036244663318246200060000001351162242209099190_);" d="M46.5,30.2c0.2,1,0.3,2,0.3,3.1
			c0,7.7-4.9,14.2-11.7,16.7h22.8L46.5,30.2z"/>
		
			<linearGradient id="SVGID_00000066505001174511786130000015489915155603761575_" gradientUnits="userSpaceOnUse" x1="3.7471" y1="38.0378" x2="19.3259" y2="53.6166">
			<stop  offset="0" style="stop-color:#FAB735"/>
			<stop  offset="1" style="stop-color:#E3312D"/>
		</linearGradient>
		<path style="fill:url(#SVGID_00000066505001174511786130000015489915155603761575_);" d="M11.3,33.3c0-1.1,0.1-2.1,0.3-3.1L0.1,50
			h22.8C16.1,47.5,11.3,41,11.3,33.3z"/>
		
			<linearGradient id="SVGID_00000026144861275478223920000014243329216042478000_" gradientUnits="userSpaceOnUse" x1="21.2214" y1="7.7786" x2="36.7786" y2="23.3359">
			<stop  offset="0" style="stop-color:#FAB735"/>
			<stop  offset="1" style="stop-color:#E3312D"/>
		</linearGradient>
		<path style="fill:url(#SVGID_00000026144861275478223920000014243329216042478000_);" d="M40.4,19.7L29,0L17.6,19.7
			c3.1-2.6,7.1-4.1,11.4-4.1S37.3,17.1,40.4,19.7z"/>
		
			<linearGradient id="SVGID_00000128456222212167074690000007727444853929365391_" gradientUnits="userSpaceOnUse" x1="19.6357" y1="23.969" x2="38.3643" y2="42.6976">
			<stop  offset="0" style="stop-color:#FAB735"/>
			<stop  offset="1" style="stop-color:#E3312D"/>
		</linearGradient>
		<circle style="fill:url(#SVGID_00000128456222212167074690000007727444853929365391_);" cx="29" cy="33.3" r="13.2"/>
	</g>
	<g>
		
			<linearGradient id="SVGID_00000113316807615346073450000007751233477348156337_" gradientUnits="userSpaceOnUse" x1="9.2831" y1="19.7169" x2="48.7169" y2="59.1506">
			<stop  offset="0" style="stop-color:#FAB735"/>
			<stop  offset="1" style="stop-color:#E3312D"/>
		</linearGradient>
		<path style="fill:url(#SVGID_00000113316807615346073450000007751233477348156337_);" d="M46.5,30.2c0.2,1,0.3,2,0.3,3.1
			c0,7.7-4.9,14.2-11.7,16.7h22.8L46.5,30.2z"/>
		
			<linearGradient id="SVGID_00000107575163505574364740000003034910064035419295_" gradientUnits="userSpaceOnUse" x1="9.2831" y1="19.7169" x2="48.7169" y2="59.1506">
			<stop  offset="0" style="stop-color:#FAB735"/>
			<stop  offset="1" style="stop-color:#E3312D"/>
		</linearGradient>
		<path style="fill:url(#SVGID_00000107575163505574364740000003034910064035419295_);" d="M11.3,33.3c0-1.1,0.1-2.1,0.3-3.1L0.1,50
			h22.8C16.1,47.5,11.3,41,11.3,33.3z"/>
		
			<linearGradient id="SVGID_00000022541907599656247890000006691916492431091348_" gradientUnits="userSpaceOnUse" x1="9.2831" y1="19.7169" x2="48.7169" y2="59.1506">
			<stop  offset="0" style="stop-color:#FAB735"/>
			<stop  offset="1" style="stop-color:#E3312D"/>
		</linearGradient>
		<path style="fill:url(#SVGID_00000022541907599656247890000006691916492431091348_);" d="M40.4,19.7L29,0L17.6,19.7
			c3.1-2.6,7.1-4.1,11.4-4.1S37.3,17.1,40.4,19.7z"/>
		
			<linearGradient id="SVGID_00000003068333612139661300000007429426884422557095_" gradientUnits="userSpaceOnUse" x1="9.2831" y1="19.7169" x2="48.7169" y2="59.1506">
			<stop  offset="0" style="stop-color:#FAB735"/>
			<stop  offset="1" style="stop-color:#E3312D"/>
		</linearGradient>
		<circle style="fill:url(#SVGID_00000003068333612139661300000007429426884422557095_);" cx="29" cy="33.3" r="13.2"/>
	</g>
</g>
</svg>
